<mxfile host="app.diagrams.net" modified="2023-11-20T14:31:52.600Z" agent="Mozilla/5.0 (Windows NT 10.0; Win64; x64) AppleWebKit/537.36 (KHTML, like Gecko) Chrome/119.0.0.0 Safari/537.36" version="22.1.3" etag="urT7Ht73hiM-wm85MFRW" type="github">
  <diagram name="第 1 页" id="xHwEDzisRtK3hbp55p8b">
    <mxGraphModel>
      <root>
        <mxCell id="0" />
        <mxCell id="1" parent="0" />
      </root>
    </mxGraphModel>
  </diagram>
</mxfile>
